<svg width="69" height="56" fill="none" xmlns="http://www.w3.org/2000/svg"><g clip-path="url(#a)" fill="#303030"><path d="m39.16 16.87-1.296-1a.983.983 0 0 0-1.385.14l-17.94 20.82.278.31L23.259 33a.697.697 0 0 1-.172-1.178.678.678 0 0 1 .44-.152.668.668 0 0 1 .643.48l5.857-5.49a.502.502 0 0 1 .634 0l.297.22a.49.49 0 0 0 .663-.08l7.658-8.68a.83.83 0 0 0 .224-.652.836.836 0 0 0-.343-.598Z"/><path d="M47.59 22.73a39.836 39.836 0 0 1-12.981 6.15A69.718 69.718 0 0 1 20.489 31c.096.71.268 1.408.514 2.08 2.692 2.46 22.956-1.74 26.914-6.6.841-1.01-.326-3.75-.326-3.75ZM23.527 33a.668.668 0 0 1-.621-.42.686.686 0 0 1 .146-.74.671.671 0 0 1 1.148.48.677.677 0 0 1-.194.484.664.664 0 0 1-.479.196ZM4.38 21.29l.158-.69 2.573.59c.212.396.344.831.386 1.28.05.475.019.955-.09 1.42a3.775 3.775 0 0 1-.85 1.74 3.39 3.39 0 0 1-1.524 1 3.574 3.574 0 0 1-1.87.07 3.46 3.46 0 0 1-1.652-.88 3.306 3.306 0 0 1-.94-1.57 3.819 3.819 0 0 1 0-2c.106-.49.297-.957.564-1.38.252-.385.591-.704.989-.93l.356.55a2.844 2.844 0 0 0-.859.828 2.877 2.877 0 0 0-.447 1.112 3.152 3.152 0 0 0 .03 1.57c.133.486.396.926.762 1.27.375.367.845.62 1.355.73.495.14 1.02.14 1.514 0 .474-.158.9-.437 1.237-.81.346-.403.584-.888.693-1.41a3.1 3.1 0 0 0-.119-1.91l-2.266-.58ZM9.98 15l-2.305 3.11.99 1.79-.456.62-3.66-6.75.425-.59 7.45 1.62-.465.62L9.98 15Zm-.653-.16-3.958-.9 1.98 3.59 1.978-2.69ZM9.327 8.55l.594-.45 3.77 5.1 3.107-2.35.376.51-3.69 2.79-4.157-5.6ZM15.561 4.38l.663-.3 2.612 5.78 3.533-1.62.257.58-4.195 1.93-2.87-6.37ZM28.602 6.68l.149.63-4.77 1.13-1.583-6.82L27.03.53l.139.62-3.958.93.564 2.42 3.483-.83.148.62-3.493.82.594 2.53 4.096-.96ZM35.4 6.93l-1.652-2.2c-.184.01-.37.01-.554 0l-1.86.06.069 2.22h-.732l-.228-7L33.075 0a3.102 3.102 0 0 1 2.098.57 2.22 2.22 0 0 1 .811 1.74c.03.494-.1.985-.366 1.4a2.307 2.307 0 0 1-1.148.85l1.732 2.34-.801.03Zm-.692-3.29a1.59 1.59 0 0 0 .505-1.31 1.624 1.624 0 0 0-.584-1.28 2.385 2.385 0 0 0-1.554-.41l-1.88.07.119 3.5 1.84-.06a2.358 2.358 0 0 0 1.554-.51ZM40.635 5.07l-.356 2.39-.723-.11.366-2.35-2.048-5 .772.12 1.751 4.26L43.366.85l.692.15-3.423 4.07ZM50.42 4.65l.862 1.13-.376.3-.861-1.16-.544 1.31-.416-.18.554-1.31-1.425.19v-.48l1.405-.16-.87-1.13.386-.3.762 1.14.534-1.32.425.18-.504 1.34 1.425-.2v.49l-1.356.16ZM53.726 12.71a2.788 2.788 0 0 1-.426-1.21l.584-.26c.044.396.172.778.376 1.12.221.383.51.722.851 1 .353.341.803.562 1.286.63a1.069 1.069 0 0 0 .93-.39.903.903 0 0 0 .228-.68 1.853 1.853 0 0 0-.237-.69 10.48 10.48 0 0 0-.604-.89 9.102 9.102 0 0 1-.712-1.1 2.016 2.016 0 0 1-.258-.94c0-.37.138-.728.386-1 .216-.264.5-.461.822-.57a1.96 1.96 0 0 1 1.098 0c.462.153.89.398 1.257.72.304.256.574.552.801.88.21.304.367.642.465 1l-.564.3a3.535 3.535 0 0 0-.435-.94A3.593 3.593 0 0 0 58.91 9a2.187 2.187 0 0 0-1.277-.61 1.058 1.058 0 0 0-.93.41.863.863 0 0 0-.227.68c.023.252.104.495.237.71.139.23.337.53.604.89.265.34.503.702.712 1.08.165.286.256.61.267.94 0 .37-.137.728-.386 1a1.76 1.76 0 0 1-.83.57c-.359.11-.741.11-1.1 0a3.66 3.66 0 0 1-1.266-.72 4.538 4.538 0 0 1-.99-1.24ZM63.68 14.17l-1.395-2 .514-.37 3.216 4.64-.514.37-1.396-2-5.165 3.65-.415-.61 5.155-3.68ZM61.464 22.39c.176-.604.52-1.146.989-1.56a3.498 3.498 0 0 1 1.623-.83 3.545 3.545 0 0 1 1.86.07 3.52 3.52 0 0 1 1.514 1c.426.496.716 1.096.841 1.74a3.85 3.85 0 0 1 0 1.93 3.424 3.424 0 0 1-.99 1.56 3.634 3.634 0 0 1-3.533.78 3.312 3.312 0 0 1-1.513-1 3.777 3.777 0 0 1-.841-1.73 3.89 3.89 0 0 1 .05-1.96Zm1.296 3.18c.33.38.758.66 1.237.81a3.036 3.036 0 0 0 2.87-.64c.364-.34.634-.77.78-1.25a3.253 3.253 0 0 0-.642-2.94 2.816 2.816 0 0 0-1.277-.81 2.938 2.938 0 0 0-1.524 0 2.72 2.72 0 0 0-1.345.69c-.369.34-.639.776-.782 1.26a3.032 3.032 0 0 0 0 1.55c.108.496.344.955.683 1.33ZM60.711 34l2.563-1c0-.18.06-.36.11-.55l.484-1.81-2.098-.55.188-.71 6.69 1.81-.674 2.53a3.175 3.175 0 0 1-1.148 1.86 2.124 2.124 0 0 1-1.88.28 2.145 2.145 0 0 1-1.213-.754 2.184 2.184 0 0 1-.479-1.356l-2.73 1 .187-.75Zm3.315.28a1.795 1.795 0 0 0 1.1.87 1.763 1.763 0 0 0 1.384-.2c.437-.355.735-.854.84-1.41l.476-1.8-3.354-.91-.475 1.8a2.434 2.434 0 0 0 .03 1.65ZM57.16 40.44l-.505-.39 2.968-3.95 5.521 4.23-2.87 3.83-.504-.39 2.425-3.23-1.98-1.51-2.167 2.89-.494-.38 2.216-2.89-2.048-1.57-2.563 3.36ZM54.844 48.41l-1.415.08v-.48l1.415-.01-.762-1.19.386-.25.752 1.2.613-1.34.426.23-.673 1.26 1.415-.08v.49h-1.435l.762 1.19-.386.25-.752-1.2-.653 1.3-.415-.24.722-1.21ZM41.98 47.61l1.198.67c.2-.39.48-.732.822-1.004a3.065 3.065 0 0 1 1.157-.576 3.096 3.096 0 0 1 1.217-.13c.356.028.698.152.99.36.263.2.457.48.553.8.12.395.099.82-.059 1.2a4.999 4.999 0 0 1-.99 1.39c.327.177.63.396.9.65.188.195.326.431.407.69a1.344 1.344 0 0 1-.258 1.17 1.9 1.9 0 0 1-1.108.77 1.704 1.704 0 0 1-1.227 0 1.237 1.237 0 0 1-.712-.85 1.374 1.374 0 0 1 .069-1 4.8 4.8 0 0 1 .88-1.23l-2.384-1.34a4.811 4.811 0 0 0-.06 1.43h-.603a4.83 4.83 0 0 1 .198-1.74l-1.247-.7.257-.56Zm1.722 1 2.622 1.47c.344-.332.628-.72.841-1.15.11-.29.11-.61 0-.9a1.083 1.083 0 0 0-.692-.75 1.96 1.96 0 0 0-1.267 0c-.336.09-.648.252-.914.477a2.398 2.398 0 0 0-.63.823l.04.03Zm3.72 4a.905.905 0 0 0 .08-.74 1.234 1.234 0 0 0-.317-.52 4.273 4.273 0 0 0-.821-.55c-.3.3-.563.636-.782 1a1.01 1.01 0 0 0-.079.74.842.842 0 0 0 .435.53c.252.096.53.096.782 0 .27-.072.504-.239.663-.47l.04.01ZM29.919 55.32l.138-7h.703l-.11 5.6 2.811-4.66h.346L36.44 54l.1-5.57h.702l-.129 7h-.603l-2.91-5.23-3.077 5.13-.603-.01ZM26.475 48c.453.436.776.99.935 1.601a3.446 3.446 0 0 1-.034 1.859 3.569 3.569 0 0 1-.94 1.63c-.44.437-.992.742-1.593.88a3.8 3.8 0 0 1-1.92-.06A3.71 3.71 0 0 1 21.26 53a3.368 3.368 0 0 1-.92-1.58 3.727 3.727 0 0 1 .032-1.893 3.697 3.697 0 0 1 .957-1.627 3.405 3.405 0 0 1 1.563-.9 3.77 3.77 0 0 1 1.91.06 3.718 3.718 0 0 1 1.672.94Zm-3.374-.35a2.634 2.634 0 0 0-1.276.72 2.897 2.897 0 0 0-.752 1.33c-.139.5-.139 1.03 0 1.53.116.487.367.93.722 1.28.372.368.832.633 1.336.77.503.13 1.03.13 1.533 0 .485-.12.929-.369 1.287-.72.362-.368.622-.827.752-1.33a2.91 2.91 0 0 0 0-1.54 2.817 2.817 0 0 0-.732-1.28 2.96 2.96 0 0 0-1.346-.76 2.83 2.83 0 0 0-1.524 0ZM15.61 43l.268 2.75c.17.073.335.157.494.25l1.613.94L19.074 45l.643.37-3.463 6.03-2.256-1.31a3.166 3.166 0 0 1-1.485-1.6 2.222 2.222 0 0 1 .218-1.9c.23-.438.595-.79 1.04-1 .45-.189.95-.227 1.424-.11l-.287-2.94.703.46Zm-1.127 3.16a1.776 1.776 0 0 0-1.112.85 1.814 1.814 0 0 0-.165 1.4c.232.518.634.938 1.138 1.19l1.593.93 1.732-3-1.593-.93a2.427 2.427 0 0 0-1.594-.49v.05ZM9.753 38.31l.445-.45 3.414 3.55-4.948 4.88-3.295-3.44.456-.45 2.8 2.91 1.692-1.73L7.863 41l.475-.46 2.503 2.6 1.84-1.81-2.928-3.02ZM2.4 34.38 2.639 33l.465.07-.267 1.42L4.152 34l.159.44-1.336.46 1.098.94-.317.36-1.058-1-.248 1.42-.475-.09.277-1.42-1.325.48-.149-.39 1.326-.47-1.098-.93.326-.36 1.069.94Z"/></g><defs><clipPath id="a"><path fill="#fff" transform="translate(.422)" d="M0 0h68.206v55.46H0z"/></clipPath></defs></svg>